<?xml version="1.0" encoding="UTF-8" standalone="no"?>
<svg
   xmlns:dc="http://purl.org/dc/elements/1.1/"
   xmlns:cc="http://creativecommons.org/ns#"
   xmlns:rdf="http://www.w3.org/1999/02/22-rdf-syntax-ns#"
   xmlns:svg="http://www.w3.org/2000/svg"
   xmlns="http://www.w3.org/2000/svg"
   id="svg8"
   version="1.1"
   viewBox="0 0 181.65829 89.151985"
   height="89.151985mm"
   width="181.65829mm">
  <defs
     id="defs2" />
  <metadata
     id="metadata5">
    <rdf:RDF>
      <cc:Work
         rdf:about="">
        <dc:format>image/svg+xml</dc:format>
        <dc:type
           rdf:resource="http://purl.org/dc/dcmitype/StillImage" />
        <dc:title></dc:title>
      </cc:Work>
    </rdf:RDF>
  </metadata>
  <g
     transform="translate(-8.2778428,-19.017733)"
     id="layer1">
    <path
       id="path4276"
       d="m 8.4101344,64.106083 22.7491096,0.04086 C 44.237507,60.518221 54.115748,36.26042 64.97553,34.63234 76.993237,32.830666 117.77235,79.344715 132.52205,76.066937 145.73836,73.129918 167.4507,64.30868 167.65402,64.376454 l 22.14982,0.05543"
       style="fill:none;fill-rule:evenodd;stroke:#000000;stroke-width:1;stroke-linecap:butt;stroke-linejoin:miter;stroke-miterlimit:4;stroke-dasharray:none;stroke-opacity:1" />
    <path
       id="path4278"
       d="m 65.590372,19.017733 c 0,89.151987 0,89.151987 0,89.151987"
       style="fill:none;fill-rule:evenodd;stroke:#000000;stroke-width:0.26458332px;stroke-linecap:butt;stroke-linejoin:miter;stroke-opacity:1" />
    <path
       id="path4278-6"
       d="m 31.159244,19.017733 c 0,89.151987 0,89.151987 0,89.151987"
       style="fill:none;fill-rule:evenodd;stroke:#000000;stroke-width:0.26458332px;stroke-linecap:butt;stroke-linejoin:miter;stroke-opacity:1" />
    <path
       id="path4278-7"
       d="m 132.60807,19.017733 c 0,89.151987 0,89.151987 0,89.151987"
       style="fill:none;fill-rule:evenodd;stroke:#000000;stroke-width:0.26458332px;stroke-linecap:butt;stroke-linejoin:miter;stroke-opacity:1" />
    <path
       id="path4278-5"
       d="m 167.65402,19.017733 c 0,89.151987 0,89.151987 0,89.151987"
       style="fill:none;fill-rule:evenodd;stroke:#000000;stroke-width:0.26458332px;stroke-linecap:butt;stroke-linejoin:miter;stroke-opacity:1" />
    <path
       id="path4278-3"
       d="m 8.4101345,19.017733 c 0,89.151987 0,89.151987 0,89.151987"
       style="fill:none;fill-rule:evenodd;stroke:#000000;stroke-width:0.26458332px;stroke-linecap:butt;stroke-linejoin:miter;stroke-opacity:1" />
    <path
       id="path4278-56"
       d="m 189.80384,19.017733 c 0,89.151987 0,89.151987 0,89.151987"
       style="fill:none;fill-rule:evenodd;stroke:#000000;stroke-width:0.26458332px;stroke-linecap:butt;stroke-linejoin:miter;stroke-opacity:1" />
    <path
       id="path4334"
       d="M 189.80384,64.431887 8.4101345,64.106083"
       style="fill:none;fill-rule:evenodd;stroke:#000000;stroke-width:0.26458332px;stroke-linecap:butt;stroke-linejoin:miter;stroke-opacity:1" />
  </g>
</svg>
